<svg xmlns="http://www.w3.org/2000/svg" xmlns:xlink="http://www.w3.org/1999/xlink" width="500" zoomAndPan="magnify" viewBox="0 0 375 374.999991" height="500" preserveAspectRatio="xMidYMid meet" version="1.2"><defs><clipPath id="7c69572f92"><path d="M 2.628906 0 L 372.367188 0 L 372.367188 375 L 2.628906 375 Z M 2.628906 0 "/></clipPath><clipPath id="990f3d1951"><path d="M 187.5 0 C 85.398438 0 2.628906 83.949219 2.628906 187.5 C 2.628906 291.050781 85.398438 375 187.5 375 C 289.597656 375 372.367188 291.050781 372.367188 187.5 C 372.367188 83.949219 289.597656 0 187.5 0 Z M 187.5 0 "/></clipPath></defs><g id="993bd1e8f0"><g clip-rule="nonzero" clip-path="url(#7c69572f92)"><g clip-rule="nonzero" clip-path="url(#990f3d1951)"><path style="fill:none;stroke-width:30;stroke-linecap:butt;stroke-linejoin:miter;stroke:#000000;stroke-opacity:1;stroke-miterlimit:4;" d="M 246.49454 -0.00237054 C 110.359114 -0.00237054 -0.000268316 111.929928 -0.000268316 249.997646 C -0.000268316 388.065363 110.359114 499.997662 246.49454 499.997662 C 382.624757 499.997662 492.984139 388.065363 492.984139 249.997646 C 492.984139 111.929928 382.624757 -0.00237054 246.49454 -0.00237054 Z M 246.49454 -0.00237054 " transform="matrix(0.75,0,0,0.75,2.629107,0.0017779)"/></g></g><g style="fill:#000000;fill-opacity:1;"><g transform="translate(42.149001, 306.549818)"><path style="stroke:none" d="M 106.71875 -9.625 C 109.125 -8.820312 110.726562 -8.019531 111.53125 -7.21875 C 112.332031 -6.414062 112.734375 -5.210938 112.734375 -3.609375 L 112.734375 0 L 46 0 L 46 -3.609375 C 46 -5.210938 46.398438 -6.414062 47.203125 -7.21875 C 48.003906 -8.019531 49.609375 -8.820312 52.015625 -9.625 L 61.03125 -11.421875 L 61.03125 -193 C 55.21875 -193 48.898438 -191.695312 42.078125 -189.09375 C 35.265625 -186.488281 28.753906 -183.378906 22.546875 -179.765625 C 16.335938 -176.160156 11.273438 -173.054688 7.359375 -170.453125 C 3.453125 -167.847656 1.5 -166.546875 1.5 -166.546875 L 1.5 -206.828125 L 158.421875 -206.828125 L 158.421875 -166.546875 C 158.421875 -166.546875 156.414062 -167.847656 152.40625 -170.453125 C 148.40625 -173.054688 143.25 -176.160156 136.9375 -179.765625 C 130.625 -183.378906 123.957031 -186.488281 116.9375 -189.09375 C 109.925781 -191.695312 103.515625 -193 97.703125 -193 L 97.703125 -11.421875 Z M 106.71875 -9.625 "/></g></g><g style="fill:#000000;fill-opacity:1;"><g transform="translate(172.616075, 306.549818)"><path style="stroke:none" d="M 106.71875 -9.625 C 109.125 -8.820312 110.726562 -8.019531 111.53125 -7.21875 C 112.332031 -6.414062 112.734375 -5.210938 112.734375 -3.609375 L 112.734375 0 L 46 0 L 46 -3.609375 C 46 -5.210938 46.398438 -6.414062 47.203125 -7.21875 C 48.003906 -8.019531 49.609375 -8.820312 52.015625 -9.625 L 61.03125 -11.421875 L 61.03125 -193 C 55.21875 -193 48.898438 -191.695312 42.078125 -189.09375 C 35.265625 -186.488281 28.753906 -183.378906 22.546875 -179.765625 C 16.335938 -176.160156 11.273438 -173.054688 7.359375 -170.453125 C 3.453125 -167.847656 1.5 -166.546875 1.5 -166.546875 L 1.5 -206.828125 L 158.421875 -206.828125 L 158.421875 -166.546875 C 158.421875 -166.546875 156.414062 -167.847656 152.40625 -170.453125 C 148.40625 -173.054688 143.25 -176.160156 136.9375 -179.765625 C 130.625 -183.378906 123.957031 -186.488281 116.9375 -189.09375 C 109.925781 -191.695312 103.515625 -193 97.703125 -193 L 97.703125 -11.421875 Z M 106.71875 -9.625 "/></g></g></g></svg>