<svg xmlns="http://www.w3.org/2000/svg" xmlns:xlink="http://www.w3.org/1999/xlink" width="500" zoomAndPan="magnify" viewBox="0 0 375 374.999991" height="500" preserveAspectRatio="xMidYMid meet" version="1.2"><defs/><g id="80c6f63366"><g style="fill:#000000;fill-opacity:1;"><g transform="translate(36.253723, 294.61377)"><path style="stroke:none" d="M 111.046875 -10.015625 C 113.546875 -9.179688 115.210938 -8.34375 116.046875 -7.5 C 116.890625 -6.664062 117.3125 -5.414062 117.3125 -3.75 L 117.3125 0 L 47.859375 0 L 47.859375 -3.75 C 47.859375 -5.414062 48.273438 -6.664062 49.109375 -7.5 C 49.941406 -8.34375 51.609375 -9.179688 54.109375 -10.015625 L 63.5 -11.890625 L 63.5 -200.828125 C 57.445312 -200.828125 50.875 -199.46875 43.78125 -196.75 C 36.695312 -194.039062 29.921875 -190.8125 23.453125 -187.0625 C 16.992188 -183.3125 11.726562 -180.078125 7.65625 -177.359375 C 3.59375 -174.648438 1.5625 -173.296875 1.5625 -173.296875 L 1.5625 -215.21875 L 164.859375 -215.21875 L 164.859375 -173.296875 C 164.859375 -173.296875 162.769531 -174.648438 158.59375 -177.359375 C 154.425781 -180.078125 149.054688 -183.3125 142.484375 -187.0625 C 135.910156 -190.8125 128.972656 -194.039062 121.671875 -196.75 C 114.378906 -199.46875 107.710938 -200.828125 101.671875 -200.828125 L 101.671875 -11.890625 Z M 111.046875 -10.015625 "/></g></g><g style="fill:#000000;fill-opacity:1;"><g transform="translate(172.012392, 294.61377)"><path style="stroke:none" d="M 111.046875 -10.015625 C 113.546875 -9.179688 115.210938 -8.34375 116.046875 -7.5 C 116.890625 -6.664062 117.3125 -5.414062 117.3125 -3.75 L 117.3125 0 L 47.859375 0 L 47.859375 -3.75 C 47.859375 -5.414062 48.273438 -6.664062 49.109375 -7.5 C 49.941406 -8.34375 51.609375 -9.179688 54.109375 -10.015625 L 63.5 -11.890625 L 63.5 -200.828125 C 57.445312 -200.828125 50.875 -199.46875 43.78125 -196.75 C 36.695312 -194.039062 29.921875 -190.8125 23.453125 -187.0625 C 16.992188 -183.3125 11.726562 -180.078125 7.65625 -177.359375 C 3.59375 -174.648438 1.5625 -173.296875 1.5625 -173.296875 L 1.5625 -215.21875 L 164.859375 -215.21875 L 164.859375 -173.296875 C 164.859375 -173.296875 162.769531 -174.648438 158.59375 -177.359375 C 154.425781 -180.078125 149.054688 -183.3125 142.484375 -187.0625 C 135.910156 -190.8125 128.972656 -194.039062 121.671875 -196.75 C 114.378906 -199.46875 107.710938 -200.828125 101.671875 -200.828125 L 101.671875 -11.890625 Z M 111.046875 -10.015625 "/></g></g></g></svg>